<?xml version="1.0" standalone="no"?>
<!DOCTYPE svg PUBLIC "-//W3C//DTD SVG 20010904//EN"
 "http://www.w3.org/TR/2001/REC-SVG-20010904/DTD/svg10.dtd">
<svg version="1.0" xmlns="http://www.w3.org/2000/svg"
 width="1417.000000pt" height="168.000000pt" viewBox="0 0 1417.000000 168.000000"
 preserveAspectRatio="xMidYMid meet">

<g transform="translate(0.000000,168.000000) scale(0.100000,-0.100000)"
fill="#003a5d" stroke="none">
<path fill="#d03f15" d="M6886 1619 c-39 -61 -40 -62 -20 -78 11 -9 42 -35 70 -58 l49 -43
-102 0 -103 0 0 100 0 100 -75 0 -75 0 0 -100 0 -100 -45 0 -45 0 0 100 0 100
-75 0 -75 0 0 -100 0 -100 -49 0 c-56 0 -61 -7 -61 -102 l0 -58 55 0 55 0 0
-85 0 -85 75 0 75 0 0 90 0 90 45 0 45 0 0 -90 0 -90 65 0 65 0 0 90 0 90 116
0 117 0 -48 -42 c-27 -24 -55 -48 -64 -54 -19 -14 -8 -38 44 -97 l34 -39 126
130 c69 72 134 141 144 154 l19 24 -151 157 c-84 87 -156 157 -162 157 -5 0
-28 -28 -49 -61z"/>
<path d="M8227 1433 c-4 -21 -7 -50 -7 -65 0 -34 10 -36 141 -40 l97 -3 6 44
c11 81 13 79 -61 86 -38 3 -91 8 -119 11 l-51 5 -6 -38z"/>
<path d="M7928 1443 l-58 -4 0 -69 0 -69 33 5 c17 2 72 8 120 13 49 5 90 11
93 13 2 3 2 31 -2 62 l-7 56 -61 -2 c-33 -1 -87 -3 -118 -5z"/>
<path d="M7630 1421 l-75 -6 -3 -69 -3 -69 38 6 c21 3 78 9 126 13 84 6 88 8
83 28 -3 12 -6 40 -6 64 l0 42 -42 -2 c-24 -1 -77 -4 -118 -7z"/>
<path d="M8621 1373 c-17 -31 -28 -60 -24 -63 13 -10 200 -90 212 -90 10 0 33
37 51 85 9 25 7 27 -97 75 -58 28 -107 50 -109 50 -1 0 -16 -26 -33 -57z"/>
<path fill="#65bc99" d="M3620 1367 c-22 -30 -40 -56 -40 -59 0 -2 63 -55 139 -117 l139 -113
-101 -90 c-56 -50 -110 -98 -121 -108 -18 -17 -17 -19 24 -74 23 -31 45 -56
49 -56 3 1 86 78 185 173 l178 172 -188 150 c-103 83 -196 156 -206 163 -15
11 -22 6 -58 -41z"/>
<path fill="#65bc99" d="M3303 1330 c-18 -27 -33 -53 -33 -58 0 -4 48 -48 106 -97 l106 -90
-44 -40 c-24 -22 -72 -65 -107 -96 l-65 -57 43 -51 c24 -29 47 -51 51 -49 12
4 324 279 328 288 3 7 -329 292 -346 297 -4 2 -22 -20 -39 -47z"/>
<path d="M8988 1198 c-21 -28 -37 -52 -35 -53 24 -18 198 -125 204 -125 10 0
78 99 72 104 -20 17 -190 126 -196 126 -4 0 -25 -24 -45 -52z"/>
<path d="M5892 1140 c-56 -26 -105 -49 -108 -52 -4 -5 32 -107 41 -116 1 -2
53 18 113 44 l111 46 -21 57 c-11 31 -23 59 -27 62 -3 4 -52 -14 -109 -41z"/>
<path d="M2287 1154 c-3 -5 -8 -34 -12 -65 l-7 -57 38 -6 c22 -3 75 -8 120
-12 79 -6 81 -5 87 18 4 12 7 42 7 64 l0 41 -77 7 c-43 4 -94 9 -114 13 -20 3
-39 1 -42 -3z"/>
<path fill="#0077b3" d="M10273 986 c-59 -97 -112 -175 -116 -176 -4 0 -50 36 -101 80 -70 59
-96 77 -103 67 -35 -43 -393 -669 -393 -685 0 -9 133 -92 147 -92 5 0 74 108
153 241 79 132 147 242 152 245 4 3 55 -27 113 -67 58 -40 106 -71 109 -68 2
2 37 62 78 132 l76 128 37 -68 c37 -67 205 -354 211 -362 2 -2 32 20 66 50 35
29 67 56 72 60 8 7 -366 673 -384 684 -5 3 -57 -73 -117 -169z"/>
<path d="M1993 1092 c-56 -15 -104 -30 -108 -34 -4 -3 -1 -34 6 -68 9 -48 15
-61 28 -57 232 64 222 60 216 87 -18 74 -26 100 -33 99 -4 0 -53 -13 -109 -27z"/>
<path d="M2683 1054 l-21 -64 36 -9 c136 -36 197 -49 202 -46 8 5 35 114 29
119 -2 2 -54 17 -115 34 l-111 29 -20 -63z"/>
<path fill="#6e74aa" d="M13693 1110 c-126 -23 -211 -73 -258 -155 -72 -122 -85 -264 -38
-408 24 -74 33 -89 93 -148 109 -108 208 -142 351 -121 153 22 243 82 297 201
21 45 27 76 30 152 9 220 -69 364 -243 450 -70 34 -146 44 -232 29z m159 -146
c128 -43 196 -188 168 -354 -11 -67 -14 -72 -71 -125 -68 -62 -88 -70 -167
-62 -84 9 -177 59 -212 114 -56 87 -62 193 -19 294 26 60 73 105 135 129 60
23 107 25 166 4z"/>
<path fill="#6e74aa" d="M13720 725 l-44 -45 49 -50 c27 -28 54 -50 60 -50 13 1 93 71 97 86
3 10 -98 104 -112 104 -3 0 -26 -20 -50 -45z"/>
<path d="M5585 1010 c-109 -53 -107 -50 -74 -124 l20 -45 82 36 c45 19 95 40
110 45 16 6 26 15 24 22 -2 6 -12 35 -21 64 -10 28 -23 52 -29 51 -7 0 -57
-23 -112 -49z"/>
<path d="M9339 988 c-18 -24 -37 -48 -41 -54 -6 -8 7 -22 39 -41 26 -17 74
-46 105 -66 l57 -37 35 49 c20 27 36 51 36 55 0 4 -142 103 -187 129 -6 4 -25
-10 -44 -35z"/>
<path fill="#ff8300" d="M115 904 c-50 -63 -96 -123 -103 -133 -11 -16 -6 -22 43 -56 31 -21
59 -34 64 -29 4 5 27 33 51 62 l43 53 59 -58 58 -58 47 47 c43 43 46 49 32 65
-123 145 -192 223 -198 223 -3 -1 -46 -52 -96 -116z"/>
<path fill="#ff8300" d="M699 1001 c-8 -10 -54 -65 -103 -121 l-89 -101 44 -45 c24 -24 47
-44 52 -44 5 0 31 25 59 55 27 30 53 55 57 55 3 -1 26 -27 51 -60 25 -33 48
-59 52 -60 9 0 108 70 108 77 0 8 -203 263 -210 263 -4 0 -14 -9 -21 -19z"/>
<path d="M1660 964 c-57 -25 -106 -47 -108 -49 -5 -5 28 -107 38 -118 11 -13
220 85 219 103 0 8 -10 36 -22 62 l-22 47 -105 -45z"/>
<path d="M4380 868 c-7 -29 -15 -58 -17 -63 -3 -8 169 -62 221 -69 9 -1 48
103 43 117 -2 6 -54 22 -117 38 -63 15 -115 28 -116 29 0 0 -6 -24 -14 -52z"/>
<path d="M5270 887 c-58 -17 -107 -32 -108 -33 -6 -4 21 -114 28 -119 7 -4
216 48 224 56 8 7 -19 122 -29 125 -6 1 -57 -11 -115 -29z"/>
<path d="M1356 834 c-55 -24 -101 -46 -103 -47 -5 -6 38 -127 45 -126 4 0 55
24 114 52 l107 52 -22 54 c-13 30 -27 56 -32 57 -6 1 -55 -18 -109 -42z"/>
<path d="M4786 829 c-2 -8 -7 -37 -10 -65 l-6 -51 72 -7 c40 -3 94 -9 119 -12
52 -7 47 -13 65 87 l6 37 -49 6 c-145 17 -193 18 -197 5z"/>
<path fill="#ff8300" d="M412 597 l-42 -43 48 -47 48 -47 43 44 c39 40 43 47 31 63 -31 40
-64 73 -75 73 -6 0 -30 -19 -53 -43z"/>
<path fill="#ff8300" d="M135 443 c-38 -49 -84 -107 -102 -130 l-34 -41 56 -43 c32 -24 59
-38 63 -33 4 6 27 36 52 68 l44 58 57 -63 58 -64 45 45 c25 24 46 49 46 55 -1
12 -191 227 -206 232 -6 2 -41 -36 -79 -84z"/>
<path fill="#ff8300" d="M610 413 l-100 -117 48 -49 47 -48 57 60 58 59 51 -64 51 -64 54 38
c29 20 54 40 54 43 0 3 -21 32 -47 65 -27 33 -72 90 -101 127 -29 37 -57 67
-62 67 -5 0 -55 -53 -110 -117z"/>
<path d="M12970 414 c-57 -25 -106 -46 -107 -48 -6 -6 38 -116 47 -116 4 0 55
18 113 41 l105 40 -21 65 c-12 35 -24 64 -27 63 -3 0 -52 -21 -110 -45z"/>
<path d="M11062 301 c-11 -33 -18 -63 -14 -65 26 -15 216 -66 222 -59 14 13
49 113 42 117 -4 2 -51 16 -104 30 -54 15 -104 29 -112 32 -10 4 -20 -13 -34
-55z"/>
<path d="M12668 297 c-53 -23 -99 -45 -103 -48 -6 -6 33 -119 41 -119 6 0 209
81 213 86 8 8 -32 124 -43 123 -6 0 -55 -19 -108 -42z"/>
<path d="M11467 233 c-3 -5 -12 -31 -20 -59 l-15 -51 106 -33 c59 -18 111 -33
116 -34 4 0 19 27 32 61 l23 62 -42 11 c-23 6 -72 20 -108 31 -73 21 -86 23
-92 12z"/>
<path d="M12335 181 c-67 -19 -100 -32 -100 -42 1 -34 18 -109 25 -109 13 0
222 48 226 52 2 3 -1 32 -7 66 -9 47 -15 62 -28 61 -9 0 -61 -13 -116 -28z"/>
<path d="M11856 133 c-2 -10 -7 -37 -11 -60 -8 -48 -14 -44 112 -63 121 -17
120 -17 132 40 17 79 21 75 -91 88 -132 15 -136 15 -142 -5z"/>
</g>
</svg>
