<?xml version="1.0" standalone="no"?>
<!DOCTYPE svg PUBLIC "-//W3C//DTD SVG 20010904//EN"
 "http://www.w3.org/TR/2001/REC-SVG-20010904/DTD/svg10.dtd">
<svg version="1.0" xmlns="http://www.w3.org/2000/svg"
 width="153.000000pt" height="99.000000pt" viewBox="0 0 153.000000 99.000000"
 preserveAspectRatio="xMidYMid meet">

<g transform="translate(0.000000,99.000000) scale(0.100000,-0.100000)"
fill="#003a5d" stroke="none">
<path d="M703 938 c-23 -24 -94 -106 -157 -183 l-116 -140 42 -38 c73 -64 63
-68 173 69 55 68 103 124 106 124 4 0 28 -24 54 -52 27 -29 75 -81 108 -116
l60 -64 43 44 44 43 -84 106 c-85 107 -213 249 -225 249 -4 0 -25 -19 -48 -42z"/>
<path d="M702 441 l-41 -48 45 -44 44 -43 47 47 47 47 -44 45 c-24 25 -47 45
-51 45 -3 0 -24 -22 -47 -49z"/>
<path d="M168 285 c-84 -97 -153 -181 -153 -187 0 -6 21 -29 47 -51 l48 -40
62 69 c35 38 83 90 108 116 l45 47 128 -119 128 -120 55 47 c30 26 53 50 52
54 -2 4 -85 86 -185 183 l-182 177 -153 -176z"/>
<path d="M999 284 c-98 -98 -179 -181 -179 -184 1 -3 22 -27 47 -55 l46 -50
129 135 130 135 30 -35 c45 -52 210 -220 216 -220 9 0 102 72 102 79 0 14
-313 363 -332 370 -5 2 -90 -77 -189 -175z"/>
</g>
</svg>
