<?xml version="1.0" standalone="no"?>
<!DOCTYPE svg PUBLIC "-//W3C//DTD SVG 20010904//EN"
 "http://www.w3.org/TR/2001/REC-SVG-20010904/DTD/svg10.dtd">
<svg version="1.0" xmlns="http://www.w3.org/2000/svg"
 width="2622.000000pt" height="426.000000pt" viewBox="0 0 2622.000000 426.000000"
 preserveAspectRatio="xMidYMid meet">

<g transform="translate(0.000000,426.000000) scale(0.100000,-0.100000)"
fill="#003a5d" stroke="none">
<path d="M7530 4231 c-75 -24 -96 -36 -153 -90 -86 -80 -126 -199 -107 -317
27 -162 129 -246 395 -323 182 -53 233 -98 201 -176 -20 -47 -82 -69 -180 -63
-94 6 -153 38 -199 108 -18 27 -35 50 -39 50 -14 0 -220 -123 -225 -135 -7
-19 29 -83 76 -136 50 -57 118 -102 197 -130 73 -26 243 -36 329 -20 132 25
246 104 295 206 32 67 40 200 15 274 -38 115 -141 187 -372 261 -187 59 -243
107 -213 180 17 40 59 60 127 60 78 0 137 -30 179 -92 l30 -45 117 69 117 69
-17 31 c-29 51 -123 147 -170 175 -108 63 -284 83 -403 44z"/>
<path d="M8700 4235 c-260 -72 -428 -267 -462 -537 -16 -128 4 -246 61 -365
33 -68 57 -102 119 -162 88 -88 165 -132 278 -161 94 -24 235 -26 319 -5 137
35 281 129 353 232 l22 31 -115 66 c-63 36 -117 66 -121 66 -4 0 -22 -18 -41
-39 -18 -22 -59 -52 -91 -68 -51 -25 -68 -28 -157 -28 -87 0 -107 3 -155 26
-80 37 -125 81 -162 157 -31 62 -33 73 -33 172 0 93 3 112 26 161 36 76 90
133 157 166 45 22 73 28 146 31 119 5 188 -19 258 -89 27 -27 51 -49 53 -49 4
0 193 108 217 125 15 10 12 17 -32 71 -60 75 -162 146 -260 181 -64 23 -94 27
-200 30 -88 2 -141 -2 -180 -12z"/>
<path d="M9900 4227 c-110 -33 -175 -73 -261 -157 -122 -121 -176 -240 -186
-411 -16 -275 136 -519 392 -626 79 -34 165 -46 273 -40 169 9 301 67 418 185
133 134 197 329 173 525 -32 257 -224 474 -471 532 -95 22 -247 19 -338 -8z
m332 -274 c146 -66 230 -234 199 -399 -35 -190 -178 -303 -370 -292 -137 8
-244 78 -300 197 -23 49 -26 68 -26 161 0 92 3 112 26 160 44 94 104 148 207
187 55 20 205 12 264 -14z"/>
<path d="M13177 4239 c-105 -25 -202 -101 -249 -197 -30 -60 -33 -75 -33 -157
0 -76 4 -99 26 -146 52 -110 124 -159 337 -228 211 -69 242 -89 242 -157 0
-39 -44 -80 -96 -90 -57 -10 -156 1 -200 24 -44 22 -98 78 -109 111 -3 12 -11
21 -17 21 -6 0 -62 -29 -124 -66 -111 -64 -113 -66 -103 -92 29 -76 122 -173
207 -216 103 -52 277 -71 404 -45 128 27 244 113 289 214 44 100 33 246 -24
332 -49 74 -132 123 -299 178 -164 55 -192 67 -230 103 -46 42 -35 107 22 137
36 19 130 20 173 2 32 -14 107 -88 107 -107 0 -6 5 -10 11 -10 18 0 229 124
229 134 0 5 -14 31 -31 58 -61 94 -171 172 -280 197 -53 13 -199 12 -252 0z"/>
<path d="M2 2128 l3 -2103 3260 0 3260 0 3 2103 2 2102 -3265 0 -3265 0 2
-2102z m3433 1156 c130 -140 293 -333 433 -512 l225 -287 -124 -117 c-68 -65
-127 -116 -130 -115 -4 1 -141 147 -305 324 -165 178 -303 322 -309 320 -5 -1
-42 -40 -80 -87 -106 -127 -460 -564 -478 -590 l-16 -23 -71 56 c-107 83 -240
201 -240 212 0 20 683 843 783 943 56 56 102 102 103 102 1 0 95 -102 209
-226z m-75 -1284 l122 -130 -90 -97 c-50 -54 -108 -115 -129 -135 l-39 -38
-127 121 c-70 66 -127 125 -127 131 0 12 249 278 260 278 4 0 63 -58 130 -130z
m1261 -142 c96 -106 241 -264 323 -352 184 -199 436 -490 436 -504 0 -9 -207
-168 -284 -217 l-29 -19 -86 91 c-47 51 -198 211 -335 357 -214 229 -251 264
-265 253 -14 -11 -173 -173 -481 -490 -58 -60 -135 -135 -171 -168 l-67 -59
-130 145 -130 146 327 322 c500 494 699 687 709 687 5 0 87 -86 183 -192z
m-2070 -320 c280 -277 509 -505 509 -508 0 -3 -68 -68 -151 -144 l-151 -138
-41 39 c-23 22 -170 158 -327 303 -157 145 -301 279 -321 297 l-36 35 -288
-319 c-159 -175 -292 -322 -296 -326 -3 -5 -75 48 -158 118 l-150 127 132 151
c630 721 759 867 764 867 2 0 234 -226 514 -502z"/>
<path d="M10862 3758 l3 -473 27 -57 c70 -150 230 -238 433 -238 201 0 364 89
431 234 38 84 45 179 42 606 l-3 395 -137 3 -138 3 0 -408 c0 -263 -4 -422
-11 -448 -21 -78 -80 -115 -183 -115 -103 0 -164 38 -186 118 -6 23 -10 195
-10 445 l0 407 -135 0 -136 0 3 -472z"/>
<path d="M11910 4095 l0 -135 155 0 155 0 0 -475 0 -475 140 0 140 0 0 475 0
475 155 0 155 0 0 135 0 135 -450 0 -450 0 0 -135z"/>
<path d="M15270 4055 l0 -135 55 0 55 0 0 135 0 135 -55 0 -55 0 0 -135z"/>
<path d="M15270 3585 l0 -135 55 0 55 0 0 135 0 135 -55 0 -55 0 0 -135z"/>
<path d="M16820 3080 l0 -480 95 0 95 0 2 311 3 312 194 -312 194 -311 94 0
93 0 -2 478 -3 477 -95 0 -95 0 -3 -309 -2 -310 -139 225 c-77 123 -164 263
-195 312 l-55 87 -91 0 -90 0 0 -480z"/>
<path d="M18705 3504 c-5 -2 -43 -13 -82 -24 l-73 -22 0 -89 0 -89 -65 0 -66
0 3 -62 3 -63 62 -3 62 -3 3 -218 3 -218 28 -41 c15 -23 45 -51 67 -62 52 -27
148 -34 225 -18 l60 13 0 60 0 60 -30 -5 c-78 -12 -124 -6 -152 23 l-28 27 -3
190 -4 190 101 0 101 0 0 65 0 65 -100 0 -99 0 -3 113 c-2 70 -7 113 -13 111z"/>
<path d="M17887 3266 c-65 -27 -137 -72 -137 -85 0 -4 16 -29 36 -55 l36 -48
23 22 c55 52 194 77 255 45 36 -19 50 -43 50 -88 l0 -34 -107 -6 c-128 -6
-200 -27 -249 -69 -49 -43 -64 -78 -64 -148 0 -106 53 -176 157 -206 89 -26
168 -9 251 53 33 25 37 23 44 -22 3 -18 12 -20 78 -23 l76 -3 -3 163 c-7 348
-8 360 -31 405 -44 85 -129 123 -271 123 -67 0 -99 -6 -144 -24z m263 -422 c0
-48 -4 -60 -28 -84 -53 -53 -159 -63 -203 -19 -21 21 -26 78 -8 110 17 33 67
48 157 49 l82 0 0 -56z"/>
<path d="M20142 3277 c-43 -16 -99 -62 -123 -101 l-19 -31 0 36 c0 20 -3 51
-6 68 l-6 31 -79 0 -79 0 0 -340 0 -340 90 0 90 0 0 179 c0 200 5 224 67 292
45 50 95 76 162 85 l51 7 0 63 0 64 -57 -1 c-32 0 -73 -6 -91 -12z"/>
<path d="M20557 3276 c-145 -54 -213 -175 -205 -365 5 -112 28 -174 86 -234
49 -51 96 -74 180 -88 122 -20 247 16 325 94 l39 39 -45 46 -46 45 -35 -27
c-20 -15 -52 -34 -71 -42 -47 -19 -132 -18 -175 4 -40 20 -80 74 -80 108 l0
24 235 0 235 0 0 69 c0 139 -64 261 -164 313 -53 28 -220 36 -279 14z m211
-146 c35 -21 62 -72 62 -115 l0 -25 -148 0 c-82 0 -151 3 -155 6 -9 10 22 87
46 112 29 32 52 41 112 41 33 1 61 -6 83 -19z"/>
<path d="M19050 3052 c0 -287 16 -356 95 -424 23 -21 107 -48 145 -48 64 0
134 31 183 81 l47 49 0 -33 c0 -74 4 -77 93 -77 l80 0 -7 92 c-3 50 -6 203 -6
340 l0 248 -85 0 -85 0 0 -197 c0 -114 -5 -215 -11 -238 -25 -90 -135 -148
-208 -111 -60 31 -65 56 -69 314 l-4 232 -84 0 -84 0 0 -228z"/>
<path d="M15270 3095 l0 -135 55 0 55 0 0 135 0 135 -55 0 -55 0 0 -135z"/>
<path d="M15270 2625 l0 -135 55 0 55 0 0 135 0 135 -55 0 -55 0 0 -135z"/>
<path d="M7725 2504 c-183 -38 -355 -170 -433 -335 -51 -106 -66 -171 -66
-284 -1 -172 60 -322 178 -439 132 -132 279 -190 481 -189 102 0 132 4 201 27
250 81 393 291 394 579 l0 87 -305 0 -305 0 0 -120 0 -120 160 0 c88 0 160 -4
160 -8 0 -16 -55 -90 -83 -112 -68 -54 -193 -79 -297 -60 -154 28 -248 104
-290 239 -82 258 114 503 380 477 81 -8 174 -50 223 -101 l36 -37 111 62 c60
34 112 65 115 70 8 13 -69 105 -122 145 -148 113 -350 158 -538 119z"/>
<path d="M13180 2503 c-210 -57 -327 -245 -276 -442 38 -149 116 -208 388
-296 166 -53 208 -80 208 -135 0 -71 -48 -103 -155 -104 -113 -1 -187 39 -255
141 l-15 23 -95 -56 c-52 -31 -105 -62 -118 -70 l-23 -15 27 -48 c40 -74 82
-120 148 -163 91 -59 179 -82 311 -82 209 0 350 70 420 211 27 52 29 68 30
158 0 117 -18 169 -83 232 -57 55 -119 86 -278 139 -199 65 -244 95 -244 159
0 36 48 82 95 91 61 11 140 -12 183 -54 21 -20 44 -47 52 -60 l15 -24 113 67
c61 36 112 71 112 77 0 5 -18 36 -41 68 -38 55 -80 94 -142 134 -91 57 -263
80 -377 49z"/>
<path d="M8722 2028 l3 -463 31 -65 c54 -114 126 -177 254 -221 93 -32 267
-32 359 0 153 53 249 156 280 299 7 34 11 203 11 482 l0 430 -140 0 -139 0 -3
-434 c-3 -424 -4 -435 -24 -463 -37 -50 -81 -68 -164 -68 -83 0 -127 18 -164
68 -20 28 -21 39 -24 463 l-3 434 -140 0 -140 0 3 -462z"/>
<path d="M9960 1885 l0 -605 140 0 140 0 0 605 0 605 -140 0 -140 0 0 -605z"/>
<path d="M10550 1886 l0 -606 283 0 c310 0 362 7 465 59 133 67 238 187 289
331 35 97 44 272 19 371 -37 148 -123 273 -244 352 -135 89 -145 91 -499 95
l-313 3 0 -605z m621 312 c159 -73 226 -257 163 -450 -18 -56 -91 -141 -145
-168 -51 -27 -156 -41 -269 -38 l-95 3 -3 330 c-1 181 0 336 3 344 4 10 34 12
148 9 127 -3 148 -6 198 -30z"/>
<path d="M11880 1885 l0 -605 385 0 385 0 0 130 0 130 -245 0 -245 0 0 110 0
110 215 0 215 0 0 130 0 130 -215 0 -215 0 0 105 0 105 240 0 240 0 0 130 0
130 -380 0 -380 0 0 -605z"/>
<path d="M15270 2135 l0 -135 55 0 55 0 0 135 0 135 -55 0 -55 0 0 -135z"/>
<path d="M19128 1904 c-55 -29 -65 -102 -23 -152 59 -71 195 -30 195 59 0 85
-94 136 -172 93z"/>
<path d="M16820 1430 l0 -480 315 0 315 0 0 75 0 75 -217 2 -218 3 -3 133 -3
132 196 0 195 0 0 80 0 80 -195 0 -195 0 0 110 0 110 220 0 220 0 0 80 0 80
-315 0 -315 0 0 -480z"/>
<path d="M25900 1836 l-75 -23 -5 -89 -5 -89 -63 -3 -63 -3 3 -62 3 -62 62 -3
62 -3 3 -218 c3 -217 3 -218 30 -258 39 -60 101 -87 198 -86 42 1 96 6 119 13
l43 11 -4 55 c-3 30 -7 56 -9 58 -2 2 -24 1 -49 -3 -58 -9 -107 1 -134 28 -20
20 -21 33 -24 211 l-3 190 100 0 101 0 0 65 0 65 -100 0 -100 0 0 115 c0 63
-3 115 -7 114 -5 -1 -42 -11 -83 -23z"/>
<path d="M15270 1665 l0 -135 55 0 55 0 0 135 0 135 -55 0 -55 0 0 -135z"/>
<path d="M17905 1641 c-72 -18 -155 -78 -155 -112 0 -5 -4 -9 -10 -9 -5 0 -10
25 -10 55 l0 55 -82 0 -83 0 3 -340 3 -340 84 0 85 0 0 198 c1 231 11 276 73
326 31 25 47 30 91 30 40 1 60 -4 76 -19 45 -40 50 -70 50 -310 l0 -225 85 0
85 0 0 238 c0 256 -7 305 -53 373 -12 19 -41 44 -63 56 -44 25 -132 36 -179
24z"/>
<path d="M19788 1636 c-61 -17 -110 -51 -142 -100 l-26 -40 0 36 c0 19 -3 50
-6 67 l-6 31 -79 0 -79 0 0 -340 0 -340 90 0 90 0 0 182 c0 162 2 186 20 223
41 86 123 144 213 153 l47 5 0 62 c0 81 -17 89 -122 61z"/>
<path d="M20210 1636 c-186 -41 -284 -203 -252 -412 30 -189 147 -286 347
-286 200 0 317 97 347 286 33 215 -72 379 -267 415 -72 13 -104 13 -175 -3z
m197 -152 c52 -39 75 -99 75 -195 0 -124 -43 -195 -133 -219 -79 -22 -156 14
-196 89 -19 36 -23 59 -23 130 0 95 18 148 62 189 54 50 154 52 215 6z"/>
<path d="M21088 1637 c-54 -16 -115 -59 -130 -93 -18 -39 -28 -28 -28 31 l0
55 -82 0 -83 0 3 -340 3 -340 83 0 84 0 4 218 c4 242 7 257 74 308 47 36 129
40 164 9 45 -40 50 -70 50 -310 l0 -225 85 0 85 0 0 238 c0 256 -7 305 -53
373 -47 69 -161 103 -259 76z"/>
<path d="M21863 1636 c-59 -19 -108 -52 -132 -89 l-21 -32 0 26 c0 15 -3 41
-6 58 l-6 31 -79 0 -79 0 0 -340 0 -340 90 0 90 0 0 213 c0 201 1 215 23 257
16 33 34 51 67 68 52 26 78 27 126 7 58 -24 64 -51 64 -315 l0 -230 91 0 91 0
-4 248 c-4 226 -6 252 -27 304 -29 74 -82 122 -150 137 -64 14 -85 13 -138 -3z"/>
<path d="M22551 1639 c-100 -20 -181 -84 -225 -178 -18 -39 -21 -64 -21 -171
0 -142 13 -185 79 -258 116 -128 383 -127 509 3 l38 39 -47 47 -47 48 -38 -34
c-61 -55 -170 -72 -239 -37 -40 20 -80 74 -80 108 l0 24 236 0 237 0 -5 93
c-10 183 -91 287 -249 317 -59 11 -86 11 -148 -1z m159 -152 c34 -17 70 -74
70 -113 l0 -34 -149 0 c-83 0 -152 3 -154 8 -9 14 22 84 49 113 46 48 116 58
184 26z"/>
<path d="M23375 1641 c-63 -16 -115 -54 -143 -106 -11 -19 -11 -18 -12 6 0 15
-3 41 -6 58 l-6 31 -74 0 -74 0 0 -340 0 -340 90 0 90 0 0 225 c0 245 3 263
56 304 59 47 136 32 171 -32 15 -27 18 -65 21 -264 l3 -233 85 0 84 0 0 220
c0 240 5 269 55 308 60 47 129 36 172 -27 22 -33 23 -41 23 -267 l0 -234 91 0
91 0 -4 253 c-4 235 -5 255 -26 302 -45 99 -108 139 -217 139 -82 0 -134 -23
-183 -78 l-31 -35 -20 34 c-11 19 -38 43 -60 54 -45 23 -131 34 -176 22z"/>
<path d="M24453 1640 c-182 -39 -285 -224 -243 -442 31 -169 146 -260 325
-260 118 0 227 45 279 115 l20 27 -42 43 c-36 36 -45 40 -60 30 -106 -76 -183
-91 -266 -55 -37 17 -51 30 -66 64 -11 24 -20 49 -20 56 0 9 55 12 240 12
l240 0 0 38 c0 168 -63 293 -173 346 -59 29 -166 41 -234 26z m168 -157 c34
-20 58 -61 61 -104 l3 -34 -152 -3 c-141 -2 -153 -1 -153 15 1 27 34 96 58
116 43 38 126 43 183 10z"/>
<path d="M25297 1640 c-58 -15 -92 -36 -131 -82 l-36 -42 0 57 0 57 -86 0 -87
0 7 -37 c3 -21 6 -174 6 -340 l0 -303 85 0 85 0 0 205 c0 223 6 253 58 308 49
51 149 59 190 14 34 -38 42 -93 42 -314 l0 -213 85 0 85 0 0 228 c0 242 -9
311 -51 379 -42 68 -158 106 -252 83z"/>
<path d="M18302 1621 c2 -5 61 -158 133 -340 l130 -331 76 0 75 0 127 323 c69
177 129 330 133 340 6 15 -2 17 -84 17 l-89 0 -79 -230 c-44 -126 -82 -230
-85 -230 -4 0 -10 11 -13 24 -3 13 -38 116 -77 230 l-71 206 -90 0 c-49 0 -88
-4 -86 -9z"/>
<path d="M19100 1290 l0 -340 90 0 90 0 0 340 0 340 -90 0 -90 0 0 -340z"/>
<path d="M15270 1175 l0 -135 55 0 55 0 0 135 0 135 -55 0 -55 0 0 -135z"/>
<path d="M15270 705 l0 -135 55 0 55 0 0 135 0 135 -55 0 -55 0 0 -135z"/>
<path d="M11730 769 c-112 -22 -217 -107 -268 -217 -24 -50 -27 -69 -27 -162
0 -93 3 -112 27 -162 54 -116 160 -196 291 -218 125 -22 252 20 340 112 26 28
47 53 47 57 0 4 -18 17 -39 29 l-40 22 -49 -49 c-137 -137 -375 -93 -458 84
-19 39 -24 67 -24 127 0 67 4 84 33 140 54 104 149 155 277 146 79 -6 136 -33
183 -88 l35 -42 41 24 c22 13 41 26 41 29 0 3 -16 24 -35 46 -89 104 -230 150
-375 122z"/>
<path d="M7250 390 l0 -372 198 4 c193 3 198 4 250 31 259 136 266 529 11 667
l-64 35 -197 3 -198 4 0 -372z m403 256 c49 -24 92 -67 120 -120 18 -34 22
-57 22 -136 0 -105 -11 -137 -69 -198 -59 -64 -96 -76 -243 -80 l-133 -4 0
282 0 282 133 -4 c105 -2 140 -7 170 -22z"/>
<path d="M8020 390 l0 -370 220 0 220 0 0 45 0 45 -170 0 -170 0 0 120 0 120
155 0 155 0 0 45 0 45 -155 0 -155 0 0 115 0 115 170 0 170 0 0 45 0 45 -220
0 -220 0 0 -370z"/>
<path d="M8850 390 l0 -370 50 0 50 0 0 155 0 154 158 3 157 3 3 48 3 47 -160
0 -161 0 0 120 0 120 165 0 165 0 0 45 0 45 -215 0 -215 0 0 -370z"/>
<path d="M9400 390 l0 -370 50 0 50 0 0 140 0 140 90 0 90 0 82 -140 83 -140
52 0 c29 0 53 2 53 4 0 2 -38 68 -85 147 l-85 144 34 17 c78 40 120 120 114
220 -5 84 -40 140 -113 180 -49 27 -53 28 -232 28 l-183 0 0 -370z m390 245
c37 -36 53 -89 40 -134 -26 -90 -67 -111 -219 -111 l-111 0 0 141 0 141 129
-4 c128 -3 130 -3 161 -33z"/>
<path d="M10255 743 c-43 -114 -265 -712 -265 -717 0 -4 23 -6 51 -4 l52 3 26
70 c14 39 30 76 34 83 6 9 52 12 168 12 l160 0 18 -42 c10 -24 24 -61 32 -83
14 -39 16 -40 68 -43 41 -2 52 0 49 10 -3 7 -65 174 -138 371 l-133 357 -58 0
c-45 0 -58 -4 -64 -17z m130 -278 c32 -88 60 -166 62 -172 4 -10 -25 -13 -127
-13 -103 0 -131 3 -128 13 13 52 124 345 129 339 3 -4 32 -79 64 -167z"/>
<path d="M10740 390 l0 -370 50 0 50 0 2 276 3 276 190 -276 189 -276 43 0 43
0 0 370 0 370 -50 0 -50 0 0 -270 c0 -148 -3 -270 -7 -270 -5 1 -91 122 -192
270 l-185 270 -43 0 -43 0 0 -370z"/>
<path d="M12250 390 l0 -370 225 0 225 0 0 45 0 45 -175 0 -175 0 0 120 0 120
160 0 160 0 0 45 0 45 -160 0 -160 0 0 115 0 115 169 0 169 0 4 45 3 45 -222
0 -223 0 0 -370z"/>
<path d="M13180 720 l0 -40 90 0 90 0 0 -125 0 -125 -125 0 -125 0 0 90 0 90
-42 0 -43 0 3 -220 3 -220 39 0 40 0 0 90 0 90 125 0 125 0 0 -125 0 -125 -90
0 -90 0 0 -40 0 -40 220 0 220 0 0 40 0 40 -90 0 -90 0 0 125 0 125 125 0 125
0 0 -90 0 -90 40 0 40 0 0 220 0 220 -40 0 -40 0 0 -90 0 -90 -125 0 -125 0 0
125 0 125 90 0 90 0 0 40 0 40 -220 0 -220 0 0 -40z"/>
<path d="M15270 201 l0 -129 38 -4 c74 -7 72 -11 72 133 l0 129 -55 0 -55 0 0
-129z"/>
</g>
</svg>
