<?xml version="1.0" standalone="no"?>
<!DOCTYPE svg PUBLIC "-//W3C//DTD SVG 20010904//EN"
 "http://www.w3.org/TR/2001/REC-SVG-20010904/DTD/svg10.dtd">
<svg version="1.0" xmlns="http://www.w3.org/2000/svg"
 width="338.000000pt" height="338.000000pt" viewBox="0 0 338.000000 338.000000"
 preserveAspectRatio="xMidYMid meet">

<g transform="translate(0.000000,338.000000) scale(0.100000,-0.100000)"
fill="#00a092" stroke="none">
<path d="M1395 3349 c-93 -17 -212 -49 -260 -69 -11 -5 -51 -21 -89 -36 -260
-101 -523 -305 -699 -544 -82 -111 -91 -126 -164 -270 -91 -182 -146 -382
-165 -602 -12 -154 -1 -348 28 -475 23 -99 65 -236 75 -247 5 -6 9 -17 9 -26
0 -8 23 -62 51 -120 139 -282 340 -508 603 -679 94 -61 269 -147 336 -165 14
-4 34 -11 45 -16 84 -38 386 -90 523 -90 174 0 493 65 637 129 243 109 368
194 541 366 114 113 219 243 265 326 111 202 175 377 215 589 25 132 25 418 0
550 -40 212 -114 415 -209 575 -59 100 -186 264 -262 340 -50 51 -239 205
-250 205 -4 0 -22 11 -39 24 -33 24 -159 91 -236 123 -108 46 -128 54 -183 67
-31 8 -61 17 -65 20 -4 2 -60 14 -124 25 -155 28 -433 28 -583 0z m195 -164
l0 -45 45 0 c25 0 45 -4 45 -9 0 -9 -107 -27 -114 -20 -2 2 -7 30 -11 62 -7
54 -6 57 14 57 18 0 21 -6 21 -45z m100 31 c0 -21 -21 -31 -31 -15 -14 22 -11
29 11 29 11 0 20 -6 20 -14z m144 8 c30 -11 5 -24 -35 -18 -32 5 -39 4 -39
-10 0 -12 9 -16 35 -16 19 0 35 -4 35 -10 0 -5 -18 -10 -40 -10 -54 0 -51 -17
5 -26 58 -8 58 -24 1 -24 -70 0 -76 5 -76 66 l0 54 49 0 c27 0 56 -3 65 -6z
m105 -44 c34 -43 51 -44 51 -4 0 17 5 24 20 24 23 0 24 -6 9 -66 -6 -25 -17
-44 -25 -44 -7 0 -31 19 -53 43 l-40 42 -1 -32 c0 -34 -9 -46 -27 -35 -6 4 -9
27 -6 60 7 65 26 69 72 12z m-479 21 c0 -5 -18 -11 -40 -15 -49 -8 -54 -29 -5
-25 19 2 36 -1 37 -6 2 -6 -12 -11 -29 -13 -20 -2 -33 -9 -33 -17 0 -11 10
-13 45 -8 28 3 45 2 45 -5 0 -5 -21 -13 -46 -17 -26 -3 -52 -9 -59 -11 -8 -3
-16 11 -24 40 -16 65 -14 74 17 79 51 8 92 7 92 -2z m640 -64 l15 -47 35 35
c24 24 39 32 49 26 10 -7 4 -18 -29 -47 -62 -56 -78 -52 -101 21 -23 73 -23
67 -1 63 10 -2 23 -21 32 -51z m-791 19 c23 -28 9 -70 -29 -88 -75 -36 -83
-34 -103 22 -10 29 -17 53 -15 55 29 24 130 31 147 11z m949 -25 c10 -6 8 -18
-10 -59 -17 -38 -27 -49 -36 -43 -11 7 -11 17 4 60 20 54 21 56 42 42z m-1170
-73 c12 -28 20 -54 17 -56 -3 -3 -31 -1 -63 5 -31 6 -59 9 -61 7 -2 -2 3 -14
12 -28 16 -24 13 -36 -9 -36 -9 0 -64 81 -64 95 0 16 54 11 118 -9 23 -8 23
-8 7 24 -14 27 -15 34 -3 41 21 14 23 12 46 -43z m1277 31 c58 -27 75 -79 26
-79 -14 0 -17 -6 -13 -25 6 -34 -15 -32 -31 3 -16 37 -30 45 -44 26 -7 -9 -19
-14 -28 -10 -14 5 -14 9 1 43 9 21 18 44 21 51 7 17 16 15 68 -9z m181 -103
c38 -38 42 -57 18 -80 -40 -41 -144 9 -144 69 0 56 74 63 126 11z m-1628 2
c44 -44 -49 -135 -117 -113 -43 13 -31 83 18 110 32 18 83 19 99 3z m1062 -47
c332 -85 593 -269 778 -547 114 -172 187 -384 201 -587 29 -422 -121 -797
-428 -1071 -166 -147 -374 -251 -589 -293 -121 -24 -345 -28 -455 -9 -405 73
-745 317 -924 663 -106 207 -145 367 -145 606 0 241 43 409 158 614 182 323
464 536 824 622 122 29 127 29 320 26 140 -2 192 -7 260 -24z m668 -18 c6 -10
13 -37 17 -60 4 -24 9 -43 12 -43 3 0 13 10 22 22 17 20 51 21 51 0 0 -15 -78
-84 -88 -78 -5 3 -13 23 -16 43 -14 77 -16 79 -40 49 -15 -18 -25 -23 -35 -17
-11 7 -7 18 19 55 37 51 45 55 58 29z m-1871 -71 c12 -17 13 -26 5 -34 -9 -9
-21 -2 -46 28 -37 42 -44 60 -23 67 12 4 31 -14 64 -61z m-87 19 c0 -6 -10
-17 -22 -25 l-22 -16 34 -35 c29 -30 32 -37 20 -45 -11 -7 -24 -1 -47 22 -32
31 -33 31 -53 13 -11 -10 -23 -15 -27 -11 -4 4 15 30 44 57 49 47 73 60 73 40z
m2111 -92 c4 -13 7 -42 8 -63 l1 -39 24 23 c23 21 56 23 56 3 -1 -16 -81 -75
-95 -69 -11 4 -15 21 -15 61 0 59 -7 66 -35 35 -14 -16 -21 -17 -32 -8 -12 9
-7 18 24 50 41 42 54 44 64 7z m-2231 -39 c0 -5 -10 -15 -22 -21 -29 -15 -38
-28 -38 -56 0 -44 62 -30 79 18 5 16 15 29 20 29 34 0 -15 -82 -59 -100 -42
-17 -64 -4 -68 42 -2 27 3 42 27 66 28 31 61 43 61 22z m2404 -152 c9 -15 12
-29 7 -32 -5 -4 -19 10 -31 29 -12 19 -25 35 -29 35 -19 0 -19 -15 0 -42 28
-39 14 -50 -16 -13 -31 39 -43 26 -16 -18 23 -37 25 -47 13 -47 -5 0 -23 21
-41 47 l-34 47 44 38 44 38 22 -28 c12 -15 29 -39 37 -54z m-2524 36 c0 -4
-10 -22 -21 -41 -27 -43 -12 -64 16 -23 19 29 35 39 35 22 0 -5 -7 -17 -15
-28 -8 -10 -15 -25 -15 -31 0 -24 18 -13 40 22 25 41 48 37 24 -4 -47 -80 -60
-84 -118 -37 l-30 23 33 52 c29 45 51 64 51 45z m2574 -111 c4 -9 2 -31 -4
-49 -13 -39 -7 -54 21 -54 19 0 59 -33 59 -49 0 -4 -21 -17 -47 -27 -27 -11
-51 -20 -55 -22 -5 -2 -8 5 -8 16 0 11 12 24 28 32 l27 13 -32 11 c-44 15 -47
21 -35 55 12 34 7 38 -24 16 -22 -15 -34 -11 -34 10 0 13 68 63 86 64 7 1 15
-6 18 -16z m-2654 -21 c0 -4 -7 -17 -15 -29 -15 -21 -14 -23 25 -45 43 -25 44
-26 31 -47 -7 -11 -15 -10 -44 8 -43 27 -45 26 -57 -4 -5 -14 -14 -25 -20 -25
-12 0 -12 2 1 37 25 68 79 139 79 105z m-36 -178 c39 -39 4 -156 -50 -170 -71
-18 -72 121 -2 170 28 20 33 20 52 0z m2822 -103 c10 -49 -12 -36 -26 14 -7
25 -18 44 -24 42 -6 -3 -10 -10 -8 -18 12 -49 13 -69 5 -69 -6 0 -14 14 -19
32 -5 17 -16 34 -23 36 -10 3 -12 -1 -8 -14 3 -11 10 -34 15 -51 8 -25 8 -33
-2 -33 -11 0 -46 89 -46 117 0 6 21 20 48 31 l47 21 18 -39 c9 -21 20 -53 23
-69z m24 -86 c0 -13 -9 -47 -20 -76 l-21 -51 34 6 c29 5 35 3 40 -14 6 -25 4
-26 -60 -35 -49 -6 -53 -5 -53 13 0 11 9 41 20 67 26 60 25 67 -6 55 -36 -14
-44 -13 -44 9 0 14 13 24 43 34 59 21 67 20 67 -8z m-2923 -25 c5 -18 7 -18
29 -3 22 14 24 14 24 -1 0 -9 -13 -28 -30 -43 -33 -29 -38 -48 -15 -57 8 -3
15 -15 15 -26 0 -24 4 -23 -61 -9 l-51 11 6 52 c4 28 14 61 22 74 18 27 54 29
61 2z m-30 -247 c-4 -37 -2 -43 14 -43 14 0 19 -7 19 -26 0 -25 -2 -26 -37
-20 -21 3 -48 6 -61 6 -22 0 -23 3 -17 48 10 75 14 90 32 108 16 15 18 15 36
-7 14 -18 18 -34 14 -66z m2997 60 c13 -71 17 -161 7 -167 -6 -4 -13 9 -17 33
l-6 40 -44 -6 c-42 -5 -44 -5 -44 20 0 23 4 26 43 29 l42 3 -3 38 c-4 43 14
51 22 10z m-2972 -350 c34 -31 11 -93 -35 -93 -27 0 -57 28 -57 53 0 48 56 73
92 40z m2940 0 c34 -31 11 -93 -35 -93 -27 0 -57 28 -57 53 0 48 56 73 92 40z
m-272 -617 c-25 -42 -10 -57 18 -19 25 34 41 23 18 -11 -19 -30 -20 -36 -3
-36 6 0 20 14 29 31 10 17 22 28 27 24 11 -6 -38 -95 -52 -95 -13 0 -87 52
-87 61 0 18 45 79 58 79 10 0 8 -10 -8 -34z m-2438 7 c9 -10 19 -28 22 -40 10
-32 -12 -30 -24 2 -12 32 -34 34 -24 3 15 -45 10 -73 -13 -76 -16 -2 -28 6
-43 30 -21 35 -26 68 -10 68 6 0 10 -6 10 -14 0 -17 39 -66 40 -49 0 6 -5 24
-10 39 -6 15 -9 33 -6 41 8 19 40 16 58 -4z m2363 -127 c-28 -28 -29 -43 -2
-60 22 -14 50 2 57 34 3 13 12 26 19 28 23 8 4 -50 -25 -75 -73 -66 -132 20
-62 90 18 18 33 27 35 20 2 -6 -8 -23 -22 -37z m-2278 2 c23 -21 32 -68 13
-68 -5 0 -10 9 -10 19 0 28 -38 53 -62 40 -27 -14 -22 -36 14 -70 30 -26 31
-29 11 -29 -41 0 -75 67 -57 114 9 24 63 20 91 -6z m2238 -108 c46 -47 39 -60
-34 -60 l-44 0 23 -25 c19 -20 21 -28 12 -37 -10 -10 -20 -4 -49 24 -48 49
-41 68 27 68 l51 0 -27 23 c-16 14 -24 29 -20 35 11 19 19 15 61 -28z m-2141
-6 c42 -43 29 -104 -23 -104 -56 0 -104 83 -69 118 20 20 64 14 92 -14z m81
-74 c4 -6 -5 -24 -19 -41 -21 -24 -24 -34 -16 -50 16 -28 43 -23 69 12 31 42
53 23 22 -20 -29 -40 -57 -48 -89 -24 -40 30 -44 55 -16 97 25 37 38 44 49 26z
m1932 -42 c53 -23 65 -45 23 -40 -30 3 -50 -15 -50 -45 0 -41 -23 -21 -37 33
-13 48 -11 74 4 74 4 0 32 -10 60 -22z m-1792 -70 c54 -38 64 -64 15 -38 -15
8 -22 4 -40 -25 -12 -19 -25 -35 -30 -35 -21 0 -19 22 5 54 22 29 23 35 10 46
-14 12 -21 30 -10 30 2 0 25 -14 50 -32z m1679 16 c9 -3 16 -16 16 -29 0 -15
7 -25 21 -28 33 -9 12 -29 -22 -22 -36 8 -54 -1 -39 -20 11 -14 6 -35 -8 -35
-7 0 -62 83 -62 94 0 7 61 46 72 46 3 0 13 -3 22 -6z m-104 -62 c0 -5 -11 -14
-25 -20 -14 -6 -25 -19 -25 -27 0 -14 3 -14 30 0 26 13 30 14 30 1 0 -8 -9
-18 -21 -21 -14 -5 -18 -12 -14 -23 11 -28 11 -34 -2 -39 -10 -4 -57 69 -58
90 0 9 56 45 73 46 6 1 12 -3 12 -7z m-1459 -31 c31 -25 18 -38 -15 -15 -38
24 -45 9 -11 -26 29 -31 29 -60 -2 -60 -22 0 -83 36 -83 49 0 20 18 20 35 1
10 -11 25 -20 33 -20 11 0 8 9 -12 29 -17 18 -26 36 -23 45 9 22 50 20 78 -3z
m144 -67 c22 -9 42 -18 45 -18 3 -1 26 -8 53 -15 48 -14 65 -38 26 -37 -16 1
-25 -8 -33 -31 -13 -38 -21 -47 -35 -39 -6 4 -5 21 5 48 7 22 14 42 14 43 0 2
-32 12 -45 14 -3 0 -18 7 -35 16 -22 11 -31 12 -36 3 -4 -6 -3 -13 3 -15 6 -2
19 -11 29 -19 18 -14 17 -15 -13 -10 -42 7 -51 -8 -13 -24 29 -12 41 -30 20
-30 -16 0 -80 33 -80 42 0 14 43 97 49 94 3 -2 24 -12 46 -22z m1165 18 c0 -5
-11 -14 -25 -20 -25 -12 -34 -32 -14 -32 6 0 19 5 29 10 10 6 21 6 24 1 3 -4
-6 -13 -19 -19 -25 -12 -34 -32 -14 -32 6 0 20 5 31 11 12 7 24 7 30 1 5 -5
-10 -17 -41 -30 l-49 -20 -20 51 -20 52 32 17 c34 19 56 23 56 10z m-90 -84
c14 -26 14 -29 -10 -53 -14 -13 -39 -27 -57 -31 -30 -6 -32 -5 -46 42 -12 44
-12 50 2 62 9 7 34 12 56 10 31 -2 43 -9 55 -30z m-773 -30 c22 -18 -6 -30
-30 -13 -25 17 -57 3 -57 -25 0 -25 38 -46 53 -31 8 8 8 11 -2 11 -7 0 -10 4
-7 9 3 5 15 7 26 4 14 -4 20 -14 20 -34 0 -28 -13 -38 -25 -19 -3 5 -12 7 -20
4 -15 -6 -55 12 -67 30 -39 57 53 111 109 64z m572 7 c0 -5 -6 -9 -11 -7 -17
5 -49 -9 -43 -19 4 -5 22 -9 41 -9 67 0 50 -61 -18 -64 -46 -1 -51 18 -5 22
42 4 41 22 -2 22 -16 0 -35 7 -42 16 -11 14 -10 19 11 36 24 19 72 21 69 3z
m-509 -49 c0 -31 5 -46 16 -50 25 -10 44 12 44 50 0 24 5 34 15 34 21 0 20
-68 -2 -92 -18 -20 -54 -23 -84 -8 -25 14 -29 110 -4 110 11 0 15 -12 15 -44z
m400 34 c0 -5 -13 -10 -30 -10 -21 0 -30 -5 -30 -16 0 -12 7 -15 30 -12 19 3
29 1 27 -6 -2 -6 -13 -12 -25 -14 -35 -5 -25 -22 13 -22 19 0 35 -4 35 -9 0
-7 -54 -21 -87 -21 -13 0 -28 81 -19 105 6 17 86 22 86 5z m-253 -56 c-6 -61
-12 -73 -27 -58 -15 15 0 114 18 114 12 0 14 -10 9 -56z m121 40 c26 -18 30
-65 6 -84 -8 -8 -34 -14 -57 -14 l-42 -1 -3 58 -3 57 38 0 c21 0 49 -7 61 -16z"/>
<path d="M1218 3143 c-21 -5 -21 -2 -7 -42 9 -26 15 -31 33 -25 36 11 52 32
40 52 -11 18 -36 23 -66 15z"/>
<path d="M2324 3068 c-8 -12 22 -38 44 -38 7 0 12 7 10 16 -4 21 -45 37 -54
22z"/>
<path d="M2467 2988 c-22 -12 -22 -31 1 -51 24 -22 61 -22 69 -1 13 34 -37 71
-70 52z"/>
<path d="M832 2964 c-31 -22 -26 -58 9 -62 34 -4 68 32 53 56 -15 23 -35 25
-62 6z"/>
<path fill="#49d2f5" d="M1583 2899 c-281 -24 -545 -149 -748 -353 -88 -88 -176 -209 -227
-311 -93 -183 -149 -490 -122 -657 l7 -38 249 0 c234 0 250 1 243 18 -28 69
-102 308 -125 407 -37 155 -64 364 -55 435 9 72 27 100 66 100 39 0 64 -13
120 -65 107 -99 186 -129 414 -156 293 -34 408 -63 547 -136 111 -58 248 -210
327 -363 41 -81 81 -188 81 -220 0 -19 7 -20 264 -20 l264 0 8 78 c9 94 -8
268 -36 376 -34 129 -88 250 -163 364 -246 372 -671 579 -1114 541z"/>
<path fill="#00aa55" d="M864 2424 c-10 -41 3 -220 26 -336 55 -287 163 -582 276 -755 51 -78
206 -230 276 -272 83 -48 209 -89 320 -103 84 -10 110 -10 195 5 118 21 221
67 283 126 l44 42 103 -20 c169 -34 194 -28 207 49 11 72 -14 90 -128 90 -65
1 -134 30 -140 62 -3 13 -7 70 -9 128 -9 197 -88 366 -256 544 -68 71 -124
110 -204 143 -123 50 -236 75 -427 94 -249 24 -357 62 -473 167 -37 34 -72 62
-77 62 -5 0 -13 -12 -16 -26z m673 -788 c219 -144 289 -181 521 -272 125 -49
149 -67 137 -104 -16 -50 -100 -34 -274 51 -138 66 -246 135 -371 233 -125 99
-262 236 -236 236 3 0 103 -65 223 -144z"/>
<path d="M490 1516 c0 -19 34 -158 51 -208 60 -180 146 -315 294 -464 207
-210 429 -319 717 -355 172 -21 432 10 555 66 17 8 35 15 39 15 17 0 173 86
239 131 92 63 248 224 311 319 91 137 158 297 183 434 6 33 11 61 11 63 0 2
-117 3 -260 3 l-260 0 0 -95 c0 -95 0 -96 28 -107 15 -6 67 -14 116 -18 80 -6
92 -9 113 -34 46 -54 17 -207 -43 -222 -33 -8 -186 2 -236 16 -36 10 -40 9
-90 -31 -211 -167 -567 -174 -842 -16 -81 46 -197 154 -266 246 -27 36 -72
109 -100 163 l-51 98 -255 0 c-140 0 -254 -2 -254 -4z"/>
<path d="M284 2282 c-37 -25 -41 -102 -5 -102 35 0 64 67 41 95 -14 17 -20 18
-36 7z"/>
<path d="M202 2048 c-7 -25 -5 -34 6 -36 18 -5 20 -2 24 32 4 41 -19 45 -30 4z"/>
<path d="M177 1883 c-4 -3 -7 -21 -7 -40 0 -41 26 -45 32 -5 6 44 -6 65 -25
45z"/>
<path d="M593 694 c-9 -24 10 -49 38 -49 27 0 37 28 19 50 -17 20 -49 19 -57
-1z"/>
<path d="M2630 580 c0 -13 18 -22 24 -11 3 5 -1 11 -9 15 -8 3 -15 1 -15 -4z"/>
<path d="M2513 512 c-17 -11 0 -34 20 -26 9 3 17 12 17 20 0 15 -18 18 -37 6z"/>
<path d="M2130 318 c1 -37 14 -59 33 -56 29 4 44 32 28 52 -16 19 -61 21 -61
4z"/>
<path d="M1710 224 c0 -33 2 -35 28 -32 49 6 40 67 -10 68 -14 0 -18 -8 -18
-36z"/>
</g>
</svg>
